<svg id="Capa_1" data-name="Capa 1" xmlns="http://www.w3.org/2000/svg" viewBox="0 0 384 384"><defs><style>.cls-1{fill:#fefefe;}.cls-2{fill:#000001;}.cls-3{fill:#010101;}.cls-4{fill:#e0e5e7;}.cls-5{fill:#cacaca;}.cls-6{fill:#ef8fbd;}.cls-7{fill:#e83f7f;}.cls-8{fill:#b21b59;}.cls-9{fill:#35b69c;}.cls-10{fill:#73b99a;}.cls-11{fill:#636a75;}.cls-12{fill:#545b68;}</style></defs><path class="cls-1" d="M252,431.93q-93,0-185.92.07c-2.57,0-3.07-.5-3.07-3.07Q63.12,240,63,51.07c0-2.56.5-3.08,3.07-3.07,31.49.11,63,.07,94.46.07.05,1.67-1.43,1.92-2.44,2.47a14.5,14.5,0,0,0-7.65,10.93c-3.19,18.79-13.75,32.34-30,41.73a66.14,66.14,0,0,1-24.39,8.11c-10.07,1.37-14,5.76-14,15.91,0,21.49.06,43,0,64.46,0,5.26.58,10.47.81,15.7.17,4,3.21,5.3,5.94,7,1.27,5.89,3,11.74,2.17,17.88-3.16,2.87-3.36,6.3-2.37,10.25a264.64,264.64,0,0,0,43.15,92.39,268.37,268.37,0,0,0,27.36,32.2,295.54,295.54,0,0,0,71.07,52.57c6.74,3.54,13.46,7.1,20.28,10.48C251.22,430.51,252.24,430.7,252,431.93Z" transform="translate(-63 -48)"/><path class="cls-1" d="M349.45,48.07q47.39,0,94.78,0c2.09,0,2.75.23,2.75,2.62q-.12,189.39,0,378.77c0,3-1.37,2.53-3.19,2.53q-92.91,0-185.82,0c-.21-1.43,1-1.52,1.86-1.92,21-10.29,41.35-21.71,60-35.92a318.82,318.82,0,0,0,25.83-22.2A269.74,269.74,0,0,0,385.1,325a263.17,263.17,0,0,0,35.61-79.71c1.3-5,2-9.49-2.2-13.39-.1-5.41,1.63-10.59,2.1-15.93.14-1.57,1.46-2.22,2.65-2.92,2.74-1.42,3.68-3.75,3.89-6.75,1.56-22.08.33-44.19.71-66.29.08-4.75,0-9.49,0-14.24-.06-8.17-4.19-13-12.46-14.18A70.8,70.8,0,0,1,395.24,106C376.7,97.41,364,83.81,360,63.3c-1.16-5.9-3.4-10.65-9.06-13.31C350.15,49.64,349.28,49.21,349.45,48.07Z" transform="translate(-63 -48)"/><path class="cls-2" d="M349.45,48.07c7.08,2.89,10,8.28,11.72,15.72,6,25.87,23.62,39.95,48.72,45.75,2.67.62,5.43.81,8.1,1.42,6.3,1.44,11.05,6.51,11,12.92,0,28.07,1.1,56.15-.95,84.2-.21,2.89-1.52,4.95-4.39,5.84-5.18.65-8.09-2-7.61-7.19,2.39-26.17.86-52.4,1.24-78.6.07-4.42-1-5.41-5.79-6.11a77.74,77.74,0,0,1-39.2-17.45,66.65,66.65,0,0,1-23.06-38.44c-1.11-5.26-1.5-5.7-6.87-5.74-2.75,0-5.49,0-8.24,0-45.85.14-91.7,0-137.54.07-9.75,0-19.49,0-29.23,0-4.91,0-5.52.65-6.54,5.3-4.62,21.16-16.57,36.85-35.5,47.24a78.4,78.4,0,0,1-27.2,9.16c-4.57.63-5.43,1.72-5.44,6.43,0,20.49-.21,41,.1,61.46A163.65,163.65,0,0,0,94,206.85c.56,4.71-1.32,7.15-5.42,7.59-5.05-.75-6.34-2.16-6.71-7.22-2-27.41-.75-54.86-1-82.29-.06-8.21,5.38-13.5,14.11-14.56a65.36,65.36,0,0,0,31.31-12.14c12.57-9.24,20.66-21.39,23.07-37,1-6.73,5.27-10.62,11.17-13.16Z" transform="translate(-63 -48)"/><path class="cls-3" d="M419.19,232.45c3.93,1.83,4.33,4.88,3.39,8.75C408.51,299.05,377.75,346.44,332.77,385c-21.56,18.47-45.85,32.62-71.07,45.32-1.21.61-2.47,1.09-3.71,1.63h-6C198.66,407,153.87,372,121.77,322a261.12,261.12,0,0,1-34.55-81.44c-.8-3.34-.47-6.21,2.84-8.07,4.55-1.54,7.33-.15,8.6,4.78s2.48,9.67,3.88,14.47c10,34.09,26.89,64.4,49.67,91.52,25.28,30.1,55.95,53.28,91,70.88,2.57,1.29,5,2.81,7.53,4.19a8.21,8.21,0,0,0,8.51.05c15.07-8.1,30.31-15.89,44.26-25.91a280,280,0,0,0,27.09-21.24,254.82,254.82,0,0,0,34-36.31,252.07,252.07,0,0,0,23.66-36.39,246.08,246.08,0,0,0,22.89-60.41C412.21,233.1,415.26,231.15,419.19,232.45Z" transform="translate(-63 -48)"/><path class="cls-4" d="M303.79,393.09c-11.06,8.4-23.26,14.9-35.45,21.42a61,61,0,0,0-6.61,3.48c-4.49,3.14-8.36,2.74-13.34.2-30-15.28-57.76-33.56-81.52-57.58-34-34.36-57.51-74.61-68.74-121.81-1.39-5.86-2.77-6.92-8.07-6.36,1.3-4.05-.85-7.85-1-11.82-.08-2-.46-4.11-.52-6.18,3.18-1.43,4.81-3.67,4.37-7.35-1.27-10.69-1.32-21.44-1.29-32.18,0-15.87.08-31.74,0-47.61,0-3.79,1.17-5.58,5.17-6.14,22-3.08,40.11-13.07,53-31.59a59.53,59.53,0,0,0,10.21-25.46c.53-3.56,2.06-5.11,5.89-5.1q83,.14,166,.07c.87,0,1.73.14,2.6.21,1.24,1.42,1.26,3.24,1.46,4.92a65.92,65.92,0,0,0,5.51,18.47c.64,1.46,2,3.08.05,4.65-2.11,0-2.51-1.86-3.2-3.22-3.36-6.57-8.63-9.6-16-9.58q-67.28.1-134.56,0c-7.39,0-12.65,3.06-16,9.63-11.28,22.19-28.52,38-51.46,47.5-7.63,3.17-11.72,8.8-11.84,17-.44,29.63-.27,59.17,7.34,88.17A242.39,242.39,0,0,0,152,314.94a240,240,0,0,0,26.62,31.88,271.81,271.81,0,0,0,61.32,46.47c2.08,1.14,4.13,2.33,6.2,3.49a17,17,0,0,0,17.49.15,290.17,290.17,0,0,0,44.45-29.12,261.07,261.07,0,0,0,53.75-58.53,233.94,233.94,0,0,0,36.83-93.79c.29-1.85.43-3.74,1.52-5.36,2.53-.2,1.84,1.85,1.91,3,.34,5.28-.93,10.42-1.68,15.59a245,245,0,0,1-24.09,75.63,264.38,264.38,0,0,1-43,61.85A232.4,232.4,0,0,1,303.79,393.09Z" transform="translate(-63 -48)"/><path class="cls-5" d="M303.79,393.09c.88-2.43,3.39-3.18,5.07-4.79,6.83-6.52,13.93-12.71,20.49-19.56A318.36,318.36,0,0,0,352,342.1c7.43-9.69,13.66-20.18,19.54-30.86a244,244,0,0,0,23.9-62.08c2.75-11.71,5-23.52,5.71-35.57.07-1.19.43-2.52-.61-3.56-1.32-1.21-.87-2.75-.73-4.2,1.81-18.33,1.83-36.71,1.71-55.1,0-2.89-.84-5.66-1-8.5a43.1,43.1,0,0,0,.43-8.19c-.19-5-1.89-7.21-6.77-8.51-3.6-1-7.34-1.26-10.93-2.37a60.9,60.9,0,0,1-25-14.38,13.6,13.6,0,0,0-4.54-3.19c-6-4.57-9.56-11-12.87-17.52-.15-.31.11-.72.37-1,.92-3.85-2-6.53-3.09-9.74a66.48,66.48,0,0,1-3.63-18c3.24-.07,6.49,0,9.71-.25,3.54-.26,5.24,1.22,5.8,4.72,2.45,15.39,9.85,28.13,21.32,38.49A74.58,74.58,0,0,0,411,120.83c7.23,1.1,7.43,1.16,7.35,8.33-.27,23.85.7,47.7-.67,71.54-.11,1.86-.31,3.73-.5,5.59-.55,5.28,1.19,7.32,6.52,7.63a3.87,3.87,0,0,0-2.36,3.61c-.46,5-1.4,9.95-2.14,14.92-4.88.21-6.11,1.22-7.33,6.23C396.19,303,359.79,352.94,306.65,391.39,305.75,392,304.74,392.53,303.79,393.09Z" transform="translate(-63 -48)"/><path class="cls-3" d="M401.28,141a36,36,0,0,1,1.17,9.59c-.14,14.48.34,29-.54,43.43-.33,5.34-.91,10.67-1.37,16-12.19,80-55.69,138.62-123.59,180.49-4.34,2.68-8.86,5.08-13.36,7.5a17.17,17.17,0,0,1-17.18,0c-54.52-29.32-96-70.91-120.63-128.32a227.9,227.9,0,0,1-18.24-89.56c0-10.37,0-20.74,0-31.11,0-8.66,3.74-14.67,11.89-18.05,23-9.56,40.4-25.27,51.56-47.71,3.24-6.51,8.63-9.84,15.94-9.84q68,0,136.06,0c7.47,0,12.82,3.44,16.17,10.09.61,1.21,1.35,2.36,2,3.54a67.11,67.11,0,0,0,12.7,18.11,13.37,13.37,0,0,1,4.1,3.17,97.83,97.83,0,0,0,32.44,21.53,21.89,21.89,0,0,1,8.8,6.1C400.43,137.45,401.42,139,401.28,141Z" transform="translate(-63 -48)"/><path class="cls-4" d="M401.28,141c-2.37-5.33-6.64-8.38-11.91-10.59-13.7-5.74-25.74-13.9-35.49-25.24,2.24-.29,3.37,1.41,4.72,2.68,9.31,8.76,20.18,14.31,32.94,16C400.79,125.05,404.3,131.29,401.28,141Z" transform="translate(-63 -48)"/><path class="cls-6" d="M255,389.13c-1.49.49-2.68-.33-3.86-1-41.74-22.3-75.92-52.78-100.47-93.51a218.72,218.72,0,0,1-31.53-98.48c-1.17-16.1-.32-32.22-.6-48.33-.06-3.7,2.08-5.55,5.27-6.86a109,109,0,0,0,43.13-31.45,99.56,99.56,0,0,0,13.22-20.36c1.05-2.16,2.22-4.26,5-4.54,6.45-.44,12.91-.18,19.36-.17,16.78,0,33.56-.18,50.33.1a3.48,3.48,0,0,1,1.21,3c0,5.53.5,11.06-.29,16.57-.73,2-2.48,1.77-4.07,1.92-18.57,1.79-32.7,10.66-42.21,26.72A47,47,0,0,0,203.56,150a17.12,17.12,0,0,1-1.08,4.35c-.95,7.8-.13,15.62-.43,23.43-.08,2.2.43,4.48-.63,6.6-2.37,2-5.25,1.16-7.91,1.23-5.14.14-9.54,1.78-12.94,5.72a16.41,16.41,0,0,0-3.92,11.05c0,25.6-.07,51.2,0,76.8,0,8.82,4.33,14,13.58,17a14.23,14.23,0,0,0,5.19.49q26.73,0,53.48,0c1.86,0,3.75-.22,5.57.43a2.33,2.33,0,0,1,1.06,1c.8,1.78.65,3.67.65,5.53q0,39.71,0,79.4C256.19,385.12,256.57,387.33,255,389.13Z" transform="translate(-63 -48)"/><path class="cls-7" d="M255,104.9q0-10,0-20c1.11-.88,2.4-.42,3.6-.42,15.61,0,31.21.08,46.82-.1a6.79,6.79,0,0,1,6.83,4c3.88,7.12,7.74,14.23,12.75,20.7,10,12.92,22.61,22.44,37.2,29.48,2.59,1.25,5.2,2.45,7.75,3.78,4.25,2.21,6.7,5.87,6.66,10.52-.12,16.1.47,32.18-.48,48.29-2,33.26-11.49,64.29-27.1,93.48a265.29,265.29,0,0,1-36.94,52.13c-5.59,6.23-11.39,12.23-17.54,17.9-2.3,2.12-5.1,3.6-7.23,5.91-9.19,7-19.22,12.71-29.44,18.06a3.83,3.83,0,0,1-2.86.51l.06-91.49c1.6-1.36,3.55-1,5.38-1q25.47-.06,50.95,0a41.11,41.11,0,0,0,6-.3c11.23-1.65,16.69-7.83,16.73-19.23.06-20.23,0-40.46,0-60.68,0-4.37.17-8.75-.07-13.11-.4-7.16-2.78-13.17-9.91-16.3a19.62,19.62,0,0,0-8-1.4c-8.21,0-8.34,0-8.18-8.39a184.06,184.06,0,0,0-1.11-26.16c-3-23.84-23.26-42.89-47.31-44.88C257.91,106.05,256.17,106.4,255,104.9Z" transform="translate(-63 -48)"/><path class="cls-8" d="M287.3,370.56c3.35-4.37,7.84-7.57,11.71-11.4a293,293,0,0,0,43.38-54.93,228.57,228.57,0,0,0,27-64.89,215.3,215.3,0,0,0,5.7-38.19c1-16.1.28-32.16.52-48.24a10.18,10.18,0,0,0-6.26-9.78c-9.79-4.6-19.41-9.41-28-16.18a97.66,97.66,0,0,1-25.84-30.52c-.83-1.53-2.06-2.92-2.56-4.54-2-6.24-6.22-7.38-12.31-7.2-15.21.46-30.45.18-45.68.2q-32.31,0-64.6-.09c-1.74,0-3.48-.1-5.21-.16,1.23-.91,2.65-.5,4-.5,43.82,0,87.65.07,131.47,0,4.7,0,7.5,1.62,9.68,5.91,11.62,22.89,29.57,39.19,52.93,49.65,1.59.71,3.22,1.36,4.76,2.17,2,1,3.42,2.63,3.4,5-.23,22.19,1.19,44.44-2.43,66.52-9.15,55.8-36.06,101.62-78,139C303.49,359,295.83,365.34,287.3,370.56Z" transform="translate(-63 -48)"/><path class="cls-3" d="M255,104.9q35.93,1.5,50.12,34.52c3.31,7.75,3.51,16,3.58,24.27,0,6,.07,12,0,18,0,2.05.54,3,2.74,2.83,1.74-.15,3.5,0,5.24,0,10.8.1,18.18,6.75,18.29,17.55q.38,39.12,0,78.27c-.09,9.46-6.69,16.25-16.2,16.85-8.46.54-17,.24-25.45.29q-19.1.12-38.18.2v0c-1.3-.63-2.69-.32-4-.32q-28.55,0-57.1,0a17,17,0,0,1-4.09-.16c-9.8-2.76-14.3-8.64-14.31-18.76q0-37.86,0-75.72c0-10.84,7.22-18.11,18-18.22,2.5,0,5-.1,7.49-.15.9-6.92.1-13.88.4-20.82.15-3.45-.5-6.93.4-10.36C203,148,203.7,142.63,206,137.72,215.67,116.86,232,106,255,104.9Z" transform="translate(-63 -48)"/><path class="cls-9" d="M189.82,297.17q30.6,0,61.22.11c1.34,0,2.74-.35,4,.4l-62.77.08A3.14,3.14,0,0,1,189.82,297.17Z" transform="translate(-63 -48)"/><path class="cls-10" d="M201.81,153.14c0,9.55,0,19.1,0,28.65,0,.85.6,2-.77,2.53,0-9.11,0-18.23,0-27.34C201.05,155.69,200.45,154.19,201.81,153.14Z" transform="translate(-63 -48)"/><path class="cls-11" d="M306,286.37l-81.23.11q-15.17,0-30.32,0c-5.66,0-7.85-2.06-7.85-7.55q-.06-38,0-76c0-4.64,1.19-6.16,5.31-7.23,1.19-.54,2.46-.28,3.69-.28q53.18,0,106.35,0c5.21,0,6.26.89,7.18,6a27.22,27.22,0,0,1,.33,4.85q0,35.21,0,70.41C309.4,280.23,309.54,284,306,286.37Z" transform="translate(-63 -48)"/><path class="cls-7" d="M253.37,116.21c12.77-.87,23.48,3.72,32.29,12.7,8.15,8.31,12,18.52,12,30.15,0,7.49,0,15,.05,22.49,0,1.87-.19,3-2.57,3-26.86-.06-53.72,0-80.58,0-.6,0-1.26.07-1.54-.69,1.67-1.49,3.74-1.2,5.7-1.21,10.23,0,20.45,0,30.68,0,3.94,0,4.34-.39,4.35-4.26q.06-28.62,0-57.24C253.77,119.43,253.45,117.83,253.37,116.21Z" transform="translate(-63 -48)"/><path class="cls-6" d="M253.37,116.21c1.73.28,1.62,1.58,1.62,2.86,0,20.59,0,41.18,0,61.76,0,2.73-1.27,3-3.44,3-12.85-.06-25.71,0-38.56,0,.13-12.52-1.74-25.15,1.53-37.5C219.09,129.23,236.3,116,253.37,116.21Z" transform="translate(-63 -48)"/><path class="cls-12" d="M306,286.37a22.45,22.45,0,0,0,2.29-10.79c-.11-23.22-.06-46.43-.06-69.65,0-1,.06-2,0-3-.48-6.2-1.5-7.13-7.72-7.14l-108.59-.09c1.23-.9,2.65-.54,4-.54q59.22,0,118.43,0c7.81,0,9.66,1.9,9.66,9.75q0,36.54,0,73.08c0,6.31-2.2,8.46-8.62,8.45C312.22,286.47,309.1,286.4,306,286.37Z" transform="translate(-63 -48)"/><path d="M249.74,255.33c0-1.25-.1-2.51,0-3.74a7.19,7.19,0,0,0-3.06-7.23c-5.54-4.34-5.67-12.84-.89-18a12.8,12.8,0,0,1,18.4-.47c4.94,4.74,5.15,13.51-.18,18-2.78,2.35-3.42,4.74-3.26,8a88.37,88.37,0,0,1,0,9.35c-.21,3.88-2.5,6.37-5.52,6.35-3.34,0-5.41-2.52-5.48-6.65C249.72,259.07,249.74,257.2,249.74,255.33Z" transform="translate(-63 -48)"/></svg>